<svg id="Layer_1" data-name="Layer 1" xmlns="http://www.w3.org/2000/svg" xmlns:xlink="http://www.w3.org/1999/xlink" viewBox="0 0 300.58 105.92"><defs><style>.cls-1{fill:none;stroke-miterlimit:10;stroke-width:4px;}.cls-1,.cls-2{stroke:#fff;}.cls-2{fill:#fff;}</style></defs><title>down</title><rect class="cls-1" x="2" y="2" width="296.58" height="101.92" rx="12" ry="12"/><path class="cls-2" d="M146,83.16a15.5,15.5,0,0,1-6.41,1.16c-6.84,0-12-4.32-12-12.28,0-7.59,5.15-12.74,12.67-12.74A13,13,0,0,1,146,60.38l-.75,2.56a11.36,11.36,0,0,0-4.9-1c-5.69,0-9.47,3.63-9.47,10,0,5.94,3.42,9.76,9.33,9.76a12.55,12.55,0,0,0,5.11-1Z" transform="translate(-9.29 -18.78)"/><path class="cls-2" d="M153,59.7V70.46h1l8.31-10.76h3.78L156.9,70.82c4,.54,5.54,3,6.8,6.26A63.23,63.23,0,0,0,166.36,84H163a42.61,42.61,0,0,1-2.2-5.73c-1.11-3.2-2.66-5.4-6.76-5.4h-1V84h-3.1V59.7Z" transform="translate(-9.29 -18.78)"/><path class="cls-2" d="M173.53,76.33,171,84h-3.24L176,59.7h3.78L188.07,84h-3.35l-2.59-7.63Zm7.95-2.45-2.37-7c-.54-1.58-.9-3-1.26-4.42h-.08c-.36,1.44-.75,2.91-1.22,4.39l-2.38,7Z" transform="translate(-9.29 -18.78)"/><path class="cls-2" d="M194.59,59.7v7.7c0,3.31,1.72,5.18,5.14,5.18a9.45,9.45,0,0,0,4.79-1.37V59.7h3.17V84h-3.17V73.66h-.07a11.74,11.74,0,0,1-5.83,1.51c-3.21,0-7.17-1.36-7.17-7.3V59.7Z" transform="translate(-9.29 -18.78)"/><path class="cls-2" d="M217.05,76.33,214.53,84h-3.24l8.24-24.26h3.78L231.59,84h-3.35l-2.59-7.63ZM225,73.88l-2.37-7c-.54-1.58-.9-3-1.26-4.42h-.07c-.36,1.44-.76,2.91-1.23,4.39l-2.37,7Z" transform="translate(-9.29 -18.78)"/><path class="cls-2" d="M238.18,62.36H230.8V59.7h18v2.66h-7.41V84h-3.17Z" transform="translate(-9.29 -18.78)"/><path class="cls-2" d="M254.6,59.7v9.07a25.66,25.66,0,0,1,3-.18c5,0,9.36,2.19,9.36,7.56a7.34,7.34,0,0,1-1.87,5.18c-2,2.09-5.36,2.84-8.71,2.84a35.65,35.65,0,0,1-4.89-.29V59.7Zm0,21.85a13.64,13.64,0,0,0,2.59.17c3.49,0,6.48-1.69,6.48-5.39s-3.06-5.26-6.52-5.26a19.87,19.87,0,0,0-2.55.18Z" transform="translate(-9.29 -18.78)"/><image width="180" height="180" transform="translate(21.15 11.43) scale(0.44)" xlink:href="wallet.png"/></svg>