<svg id="Layer_1" data-name="Layer 1" xmlns="http://www.w3.org/2000/svg" viewBox="0 0 283.46 283.95"><defs><style>.cls-1{fill:#fff;}</style></defs><title>logo</title><path class="cls-1" d="M104.31,81.76H19.07V67.65h85.24Zm0,56.79H19.07V96h85.24ZM90.08,124.32V110.21H33.29v14.11Z" transform="translate(-19.07 -24.85)"/><path class="cls-1" d="M132.4,138.55H118.18V67.65h85.24v70.9H189.19V81.76H132.4Z" transform="translate(-19.07 -24.85)"/><path class="cls-1" d="M302.53,138.55H217.29V67.65h71V39.2h14.23ZM288.3,124.32V81.76H231.51v42.56Z" transform="translate(-19.07 -24.85)"/><polygon class="cls-1" points="0 198.94 85.24 198.94 85.24 184.72 14.23 184.72 14.23 142.15 85.24 142.15 85.24 128.05 0 128.05 0 198.94"/><path class="cls-1" d="M118.18,223.79h85.24V152.9H118.18ZM132.4,167h56.79v42.57H132.4Z" transform="translate(-19.07 -24.85)"/><polygon class="cls-1" points="198.22 198.94 212.45 198.94 212.45 170.61 283.46 170.61 283.46 156.38 212.45 156.38 212.45 142.15 283.46 142.15 283.46 128.05 198.22 128.05 198.22 198.94"/><polygon class="cls-1" points="0 283.95 14.23 283.95 14.23 255.61 85.25 255.61 85.25 241.38 14.23 241.38 14.23 227.16 85.25 227.16 85.25 213.05 0 213.05 0 283.95"/><rect class="cls-1" x="99.11" y="241.38" width="85.24" height="14.23"/><rect class="cls-1" x="99.11" y="213.05" width="85.24" height="14.11"/><rect class="cls-1" x="99.11" y="269.72" width="85.24" height="14.23"/><rect class="cls-1" x="198.22" y="269.72" width="85.24" height="14.23"/><rect class="cls-1" x="198.22" y="213.05" width="85.24" height="14.11"/><rect class="cls-1" x="198.22" y="241.38" width="85.24" height="14.23"/><rect class="cls-1" x="170.13" width="14.23" height="14.23"/><rect class="cls-1" x="134.68" width="14.23" height="14.23"/><rect class="cls-1" x="99.11" width="14.23" height="14.23"/></svg>