<svg id="Layer_1" data-name="Layer 1" xmlns="http://www.w3.org/2000/svg" viewBox="0 0 300.58 105.92"><defs><style>.cls-1{fill:none;stroke-miterlimit:10;stroke-width:4px;}.cls-1,.cls-2{stroke:#fff;}.cls-2{fill:#fff;}</style></defs><title>reg</title><rect class="cls-1" x="2" y="2" width="296.58" height="101.92" rx="12" ry="12"/><path class="cls-2" d="M50.6,60a36.61,36.61,0,0,1,6-.46c3.09,0,5.36.72,6.8,2a6.53,6.53,0,0,1,2.12,5.08,7.12,7.12,0,0,1-1.87,5.18c-1.65,1.76-4.35,2.66-7.41,2.66a10.78,10.78,0,0,1-2.52-.21V84H50.6Zm3.13,11.7a10.44,10.44,0,0,0,2.59.25c3.78,0,6.08-1.83,6.08-5.18S60.13,62,56.68,62a13.39,13.39,0,0,0-3,.25Z" transform="translate(-9.29 -18.78)"/><path class="cls-2" d="M82.31,72.58H72.88v8.75H83.39V84H69.75V59.7h13.1v2.62h-10V70h9.43Z" transform="translate(-9.29 -18.78)"/><path class="cls-2" d="M100.35,59.7v2.62H90.59V84H87.46V59.7Z" transform="translate(-9.29 -18.78)"/><path class="cls-2" d="M106,59.7V69.92c0,3.85-.07,7-.29,10.26l.07,0c1.23-2.52,2.74-5.14,4.5-8l7.85-12.49h3.13V84h-3V73.63c0-3.93,0-6.81.29-9.87l-.11,0A75.63,75.63,0,0,1,114,71.9L106.39,84h-3.34V59.7Z" transform="translate(-9.29 -18.78)"/><path class="cls-2" d="M143.69,83.16a15.46,15.46,0,0,1-6.41,1.16c-6.84,0-12-4.32-12-12.28,0-7.59,5.15-12.74,12.67-12.74a13,13,0,0,1,5.76,1.08L143,62.94a11.36,11.36,0,0,0-4.9-1c-5.68,0-9.46,3.63-9.46,10,0,5.94,3.42,9.76,9.32,9.76a12.55,12.55,0,0,0,5.11-1Z" transform="translate(-9.29 -18.78)"/><path class="cls-2" d="M153.48,62.36H146.1V59.7h18v2.66h-7.41V84h-3.17Z" transform="translate(-9.29 -18.78)"/><path class="cls-2" d="M166.77,60a36.61,36.61,0,0,1,6-.46c3.09,0,5.36.72,6.8,2a6.53,6.53,0,0,1,2.12,5.08,7.12,7.12,0,0,1-1.87,5.18c-1.65,1.76-4.35,2.66-7.41,2.66a10.78,10.78,0,0,1-2.52-.21V84h-3.13Zm3.13,11.7a10.44,10.44,0,0,0,2.59.25c3.78,0,6.08-1.83,6.08-5.18S176.3,62,172.85,62a13.39,13.39,0,0,0-2.95.25Z" transform="translate(-9.29 -18.78)"/><path class="cls-2" d="M186.82,76.33,184.3,84h-3.24L189.3,59.7h3.78L201.36,84H198l-2.59-7.63Zm8-2.45-2.37-7c-.54-1.58-.9-3-1.26-4.42h-.08c-.36,1.44-.75,2.91-1.22,4.39l-2.38,7Z" transform="translate(-9.29 -18.78)"/><path class="cls-2" d="M208.06,59.7V81.33h11.12V59.7h3.17V81.4l2.12.07-.22,8.32h-2.48L221.55,84H204.92V59.7Z" transform="translate(-9.29 -18.78)"/><path class="cls-2" d="M231.35,59.7V69.92c0,3.85-.07,7-.29,10.26l.07,0c1.23-2.52,2.74-5.14,4.5-8l7.85-12.49h3.13V84h-3V73.63c0-3.93,0-6.81.29-9.87l-.11,0a74,74,0,0,1-4.5,8.17L231.74,84H228.4V59.7Z" transform="translate(-9.29 -18.78)"/><path class="cls-2" d="M249.89,84a16,16,0,0,0,1-2.2c1-2.77,1.69-6.15,3.67-8.13a5,5,0,0,1,2-1.23v-.11a6,6,0,0,1-5.37-6,6.16,6.16,0,0,1,2.24-4.93c1.51-1.23,3.88-1.87,6.94-1.87a31.42,31.42,0,0,1,5.8.5V84H263V73.45h-2.31a4.61,4.61,0,0,0-3.49,1.18c-1.65,1.7-2.34,5.26-3.2,7.56a14.88,14.88,0,0,1-.79,1.77ZM263,62.22a14.48,14.48,0,0,0-2.95-.29c-3.1,0-5.73,1.19-5.73,4.53,0,2.92,2.59,4.61,6,4.61,1.05,0,2.05,0,2.67,0Z" transform="translate(-9.29 -18.78)"/></svg>