<svg id="Layer_1" data-name="Layer 1" xmlns="http://www.w3.org/2000/svg" viewBox="0 0 657.42 235.84"><title>logo</title><path d="M47.59,147.34c.62,0,.93-.31,1.56-.62-.32,0-.63.31-.94.31a3.77,3.77,0,0,1,2.49-.62,6.78,6.78,0,0,0,1.55-.93,46.34,46.34,0,0,1-5.59,1.24c-1.24.31-2.18.62-3.42.93h1.55a10.65,10.65,0,0,1,3.11-.31Z" transform="translate(-17.13 -32.46)"/><path d="M36.71,148.27c4.35-.31,23.94-5.28,25.8-6.83C53.81,143.92,45.42,146.1,36.71,148.27Z" transform="translate(-17.13 -32.46)"/><path d="M55.36,144.72l-.31.13C55.29,144.85,55.34,144.85,55.36,144.72Z" transform="translate(-17.13 -32.46)"/><path d="M56.6,144.23a1.86,1.86,0,0,0-1.24.31v.18A12.15,12.15,0,0,0,56.6,144.23Z" transform="translate(-17.13 -32.46)"/><rect x="59.98" y="90.33" width="0.31" height="5.9"/><path d="M72.14,139.26c1.56-.62,2.8-.93,4.36-1.55.31,0,.93-.63,1.24-.94l-11.19,4.67c1.24-.63,2.49-1.25,4-1.87s3.42-1.55,5-2.17a19.76,19.76,0,0,1,2.49-.94v-.62a.3.3,0,0,1-.31.31c-2.18.93-4.35,1.87-6.22,2.8-.62,0-.93.31-1.24.31a7.29,7.29,0,0,1-2.49.62,76.81,76.81,0,0,1-9,3.42,5.24,5.24,0,0,1-1.55.62,7.7,7.7,0,0,0,2.48-.31H61a7.41,7.41,0,0,1,4.35-1.55l4.35-1.56A6.23,6.23,0,0,0,72.14,139.26Z" transform="translate(-17.13 -32.46)"/><path d="M43.24,147.65a4.21,4.21,0,0,0-2.8.62A9,9,0,0,0,43.24,147.65Z" transform="translate(-17.13 -32.46)"/><path d="M54.62,144.91a4.1,4.1,0,0,1-1.12.25A2.41,2.41,0,0,0,54.62,144.91Z" transform="translate(-17.13 -32.46)"/><path d="M54.62,144.91a1.86,1.86,0,0,1,.43-.06h-.31Z" transform="translate(-17.13 -32.46)"/><rect x="123.07" y="126.69" width="0.62" height="2.18"/><path d="M141.45,117.82h-.31v.31C141.45,118.13,141.45,118.13,141.45,117.82Z" transform="translate(-17.13 -32.46)"/><path d="M140.21,121.54v33.57c0,.62.31,1.24.31,2.18,0-.31.31-.31.62-.31V118.13C139.9,118.75,140.52,120.3,140.21,121.54Z" transform="translate(-17.13 -32.46)"/><path d="M141.14,98.86v5.28C143,102.59,143,102.28,141.14,98.86Z" transform="translate(-17.13 -32.46)"/><path d="M141.14,117.82a28.59,28.59,0,0,0,.31-5A4.82,4.82,0,0,0,141.14,117.82Z" transform="translate(-17.13 -32.46)"/><path d="M147.05,202.66c-.31-.93-.63-2.17-.94-3.11h-.31c.31,1.25.31,2.18.62,3.42C146.74,203,146.74,202.66,147.05,202.66Z" transform="translate(-17.13 -32.46)"/><polygon points="123.7 71.68 124.01 71.99 124.01 71.68 123.7 71.68"/><path d="M148,241.2a9,9,0,0,1-.62-2.8c-.31-2.48-.94-5-1.25-7.14,0-1.87-.31-3.42-.31-5h-.93a8.67,8.67,0,0,1,.31,2.8l-.31-.31c0-2.18-.62-3.73-.93-5.91v-.93c-.31-3.11-.93-5.9-1.25-9-.62-5.91-.93-11.5-1.24-17.41V194c.93,3.42,1.87,6.53,3.11,9.95-.93-5.91-1.55-11.5-4.35-16.79a10.74,10.74,0,0,1,2.48,2.8,20,20,0,0,1,1.56,6.22h.31c-.93-10.57-2.18-21.14-3.42-31.71h-.31v18c-.62-1.55-.93-2.17-1.24-2.8,0,2.18.31,4,.31,5.6-.62-3.11-1.56-6.53-1.56-9.64,0-4-1.24-7.77-1.55-11.5v-1.86h.62V151.69c-.31,0-.31.31-.62.31,0-.93.31-2.17.31-3.11,0-3.1-.31-6.52-.31-9.63.31-3.11,1.24-6.53.62-9.63V129c.62-1.55,1.24-2.48.62-4.35a6.94,6.94,0,0,1,0-4.35c0-1.55.31-2.8.31-4v-.62c.94-2.18.94-4,.94-6.53a29,29,0,0,1,0-5.28,8.29,8.29,0,0,1,.93-3.73c.93-.93,1.24-2.49,1.55-4v-.31a37.79,37.79,0,0,1,.93-5.28,5.19,5.19,0,0,0,.32-2.18c.62-.93.62-2.18.62-3.73v-.31a23.56,23.56,0,0,0,.31-4.66c.31-1.25.62-2.8.93-4.35V66.53a8.13,8.13,0,0,0,1.55-5.28c0-.31-.31-.93,0-.93V58.14a6.33,6.33,0,0,0,.32-5.28,6.07,6.07,0,0,0,0-4.66,9.09,9.09,0,0,1,.93-3.11,8.28,8.28,0,0,0-.31-7.15c-1.25-2.8-2.8-4.35-5.6-4.35-2.17-1.55-4-1.24-6.52-.62a4.49,4.49,0,0,1-1.87.62h-2.8a10.68,10.68,0,0,0-6.21,2.18,29,29,0,0,1-4,2.48l-1.56.93-.31,2.18c-.31,5-.93,10-1.24,14.92V68.09c0,.93-.31,1.86-.31,2.8a27.13,27.13,0,0,0-.62,5c0,1.86.62,3.73.62,5.59V98.86c.31,10.87.31,21.44.31,32.32l-2.8-.62-.62,1.55h-1.24a7.66,7.66,0,0,0-3.73.31c-.62,0-.93.31-1.56.62l-8.39,1.87a28,28,0,0,1,.62-5.6,3.9,3.9,0,0,0,0-3.72v-.32a5.88,5.88,0,0,0,.32-2.17c.31-5,0-9.95.93-14.61a64.23,64.23,0,0,1,.93-8.08,27.35,27.35,0,0,0,.31-8.7V90.15l-.93-.93c-2.8-2.79-5.91-3.42-9.64-2.79a5.28,5.28,0,0,0-2.17.31,7.41,7.41,0,0,0-2.8.62,2.34,2.34,0,0,1-1.24.31,9.82,9.82,0,0,0-5,2.8C79,92,79,93.57,79,95.44v9c0,5,0,10-.31,14.92-.31.62-.31,1.24-.62,1.86-.31,1.87-.31,4,.93,5.29v.31a52.92,52.92,0,0,1-.31,6.84c0,.31-.31,1.24-.31,1.55l-.31.62c.62-.31.93-.62,1.55-.93a1.16,1.16,0,0,0,.94-.31,25.56,25.56,0,0,1-2.49,1.86l-.31.31v.31l.31.32a1,1,0,0,0-.31.62,12.62,12.62,0,0,0-2.8,1.55,7.08,7.08,0,0,0-5,1.24c-.31,0-.31.31-.62.31-.31.32-.62.32-1.25.63s-.93.31-1.55.62c-.62,0-.93-.31-1.24-.31l-5.91,2.17c-2.17.62-4.66,1.56-6.84,2.18v.31c-.31,0-.31.31-.62.31a23.14,23.14,0,0,0-4.35,1.24c-.31,0-.31,0-.62-.31-.31.31-.62.31-.93.62-.93.31-1.87.31-3.11.63.62-.63,2.8-.94,4-1.25a37.6,37.6,0,0,0,5.59-1.55,26.15,26.15,0,0,0-4.66,1.24H44.79a74.06,74.06,0,0,1-8.7,1.56,1.07,1.07,0,0,0,.62-.32,4,4,0,0,0,1.87-.31H38c-.94,0-2.18.31-3.11.31a17,17,0,0,0-2.18.94c-2.17.31-4,.62-5.9.93a5.32,5.32,0,0,1-2.18-.31,7.37,7.37,0,0,0-3.73.31H17.13l.31,4v.31c0,2.18,0,4,1.56,5.59,0,.32.31.94.31,1.25s.31.31.31.62c-1.55,2.49-.62,5.59,1.24,7.77,1.56,1.55,3.11,2.18,4.67,1.86a7.45,7.45,0,0,0,5.28,2.18,60.05,60.05,0,0,0,7.46.31c1.55-.31,2.79-.31,4-1.24A25.61,25.61,0,0,1,48.52,171a4.72,4.72,0,0,0,3.11-1.86c.31-.63,1.56-.63,2.18-.94a6.31,6.31,0,0,0,3.42-.93c1.24-.31,2.48-.62,3.1-1.55a4.49,4.49,0,0,0,2.18-.62c.93-.31,2.8-1.56,3.73-1.56a4.57,4.57,0,0,0,3.42-.62,2.32,2.32,0,0,1,1.55-.31,15.29,15.29,0,0,0,2.18-.93,4.41,4.41,0,0,0,1.86-.62,7.14,7.14,0,0,1,2.49-.63,1.16,1.16,0,0,1-.31.94c0,1.86.31,4,.31,5.9-.31.31-.31.62-.62,1.24a4.41,4.41,0,0,0-.31,2.8v21.14a6.67,6.67,0,0,0,.62,3.41c0,.32-.31.63-.31.94-.31,1.24-.31,2.79-.62,4,0,2.48,1.86,6.52,3.73,7.46,1.55.93,2.79,2.17,4.66,2.48,1.24.62,2.17.94,3.42,1.56a29.48,29.48,0,0,0,7.14,1.55c3.42.62,5.6-1.24,6.53-4.35.31-.62.62-1.55.93-2.18l1.56-4-2.49-.93a8.29,8.29,0,0,0-.93-3.73v-5c-.31-4-.93-8.39-.93-12.43-.31-3.42,0-5.6-1.25-8.7v-9.33a6.05,6.05,0,0,0-.31-2.17,4.4,4.4,0,0,0-.62-1.87c0-.31.31-.62.31-.93l1.24-2.49c1.56-.31,3.11-.31,5-.62a3.93,3.93,0,0,0,1.86-.31c.62,0,.93,0,1.25-.31a6.81,6.81,0,0,0,5-.31c.31-.31.62,0,.93,0h4.66a46.89,46.89,0,0,1,.31,9.32,81.45,81.45,0,0,0,0,8.7c0,4.35-.31,9,.62,13.37.63,3.11,1.56,6.53,1.56,9.63.31,11.81,1.24,23.93,1.24,36.06v12.12c0,1.86-.31,3.73-.31,5.59s-.31,3.42.31,5.28a5.85,5.85,0,0,0,.62,2.49,9.76,9.76,0,0,0,5.91,4l2.8.93c4.35,1.87,8.39,3.73,13.36,1.87,4.35-1.87,4.66-6.53,4.35-10.88A48,48,0,0,0,148,241.2ZM44.48,167.54v-.31a1,1,0,0,0-.62.31c0,.31,0,.31-.31.31a1.08,1.08,0,0,1-.62.31h-.31c-.31,0-.31.31-.62.31-.62.32-.94.63-1.56.63a5,5,0,0,1-2.79.93c-.63.31-1.56.31-2.18.62a1.86,1.86,0,0,0-1.24.31h-4c.31,0,.31,0,.62-.31h.31l3.73-.93a13.33,13.33,0,0,0,3.42-.62c.31,0,.31-.31.62-.31a1.12,1.12,0,0,0,.93-.32h.93c.31,0,.63-.31.94-.31a1,1,0,0,1,.62-.31,1.08,1.08,0,0,1,.62-.31h-.31c0-.31.31-.31.62-.31v.31l.31-.31c.62,0,.93-.31,1.24-.31a.31.31,0,0,1,.32-.31h.31c.62-.31.93-.31,1.24-.62A12.83,12.83,0,0,1,44.48,167.54ZM82.4,132.42h-.31v-2.79h.31Zm.93,17.1H83v-2.8h.31Zm.31-39.16h-.31a1.16,1.16,0,0,1-.31-.94,65.43,65.43,0,0,0,.62-7.77,2.46,2.46,0,0,0,.94-.31C84.27,104.45,84,107.56,83.64,110.36Zm2.49,87c0,.31-.31.31-.31.62-.31-.31-.31-.31-.31-.62-.31-3.11-.93-6.53-.62-9.95.31-3.73.31-7.77.62-11.81.31-3.73.62-7.46,1.24-11.5h.31a33.93,33.93,0,0,1,.31,5.6C87.06,179,86.44,188.05,86.13,197.38Zm4-55c-1.55,2.48-1.24,5.59-1.86,8.39-.63-2.8-.32-15.85.31-19.27,0,3.42.93,6.53,1.55,9.63Zm3.11,14.29V145.79h.31c.31,3.42.62,6.83.62,9.94C94.52,156.66,94.21,157,93.28,156.66ZM97,101.34h-.62c.31-1.55-.94-3.1.93-4.66A23.61,23.61,0,0,0,97,101.34Z" transform="translate(-17.13 -32.46)"/><path d="M145.49,205.77h-.93a8.64,8.64,0,0,1,.31,2.8h.62Z" transform="translate(-17.13 -32.46)"/><path d="M145.49,221.62v-9.94h-.93C143.63,215.09,144.25,218.2,145.49,221.62Z" transform="translate(-17.13 -32.46)"/><path d="M141.14,104.45a26.83,26.83,0,0,0-.31,5C142.07,107.87,141.76,106,141.14,104.45Z" transform="translate(-17.13 -32.46)"/><path d="M296.84,139.57h.31c0-.93-.31-1.86-.31-2.49Z" transform="translate(-17.13 -32.46)"/><path d="M343.77,188.68l.31-.31c-.31-.32-.62-.63-.93-.63C343.46,188.05,343.46,188.37,343.77,188.68Z" transform="translate(-17.13 -32.46)"/><path d="M378,138c0-.62.32-1.25.32-1.87-.32,0-.32-.31-.63-.31-.31.31-.93.31-.93.93a21.25,21.25,0,0,0-1.86,3.73c-.63,2.49-5.6,13.37-6.84,15.23-2.8,3.73-5.6,7.15-8.39,10.88a44.28,44.28,0,0,1-7.46,7.77c-1.25.93-1.56.93-2.49-.62a17.64,17.64,0,0,1-2.48-4c-2.18-4.35-1.56-6.84,2.79-9.33a1,1,0,0,0,.62-.31,27,27,0,0,0,2.8-3.1c.62-.94,1.56-1.87,2.18-2.8a6.79,6.79,0,0,1,1.55-2.49c.62-1.24.93-2.17,1.56-3.42.62-.93,1.24-1.55,1.86-2.48a14.57,14.57,0,0,0,1.86-5.91,8.42,8.42,0,0,1,.32-2.8,51.64,51.64,0,0,0,2.48-9.94c.31-2.49.93-5,0-7.77a27.22,27.22,0,0,1-1.55-6.84A2,2,0,0,0,362.1,111a7.43,7.43,0,0,1-3.73-.93,16.19,16.19,0,0,0-8.08-3.11c-4.35-.62-8.7-1.87-13.05-1.56-1.86.31-2.49.31-3.11,1.87a47.82,47.82,0,0,0-2.48,5.9c-1.25,2.49-2.49,5-2.49,7.46a13.11,13.11,0,0,1-2.18,5.6c-.62,1.55-1.55,3.1-2.17,4.66-.31.93-.31,2.17-.62,3.11-.94,2.48-1.56,5.28-2.8,7.77a16.73,16.73,0,0,0-1.24,6.83c0,1.73,0,3.45.07,5.17-3.47,10.92-6.76,21.16-10.33,24.05a13,13,0,0,0-.31-1.55c-.31-9.33,3.42-50.35,4.66-59.37a2.32,2.32,0,0,1,.31-1.55c.32-1.55.94-3.11,1.25-5a2.22,2.22,0,0,0-1.87-3.11c-2.48-.62-4.66-3.11-7.46-.62-.31.31-.93,0-1.55.31-3.42.31-6.84.93-10.57,1.55a11.57,11.57,0,0,1,.62,2.8c.32,2.17.63,4.66,0,6.53-2.17,6.83-6.21,12.74-8.7,19.26a74.45,74.45,0,0,1-4.35,8.71l-4.66,8.39c-.93,1.24-1.87,5.59-3.11,6.84-.62-1.87,0-14,.31-16.48.62-5.28,4-30.76,4.66-36A141.23,141.23,0,0,1,280.68,92a45.62,45.62,0,0,1,2.48-9.32,22,22,0,0,1,2.49-6.22,6.86,6.86,0,0,0-4-9.32,28.26,28.26,0,0,0-5-1.25c-1.87-.93-6.22.62-8.08,0a2.35,2.35,0,0,0-1.56.31c-.93.94-1.86.31-2.79,0a6.07,6.07,0,0,1-2.18-.31,13.68,13.68,0,0,1-.31,1.56c-.31,4.66-.62,9.32-.62,14s-.93,9.33.31,14a1.14,1.14,0,0,1,.31.93c-.31,3.73-.62,7.15-.62,10.57-.31,6.52-4,32.94-3.73,39.16,0,2.12.1,4.58.22,7.15-1.48,2.13-3,4.45-5.5,5.59a1.08,1.08,0,0,0-.62.31,54.23,54.23,0,0,1-3.73,4.35c-3.11,2.8-5.91,5.6-9,8.39-1.87,1.56-4,2.8-5.6,4.66a57,57,0,0,1-5,4,29.88,29.88,0,0,1-5.28,3.1c-2.18,1.56-3.42,1.25-5-1.24-2.48-5-3.1-9.94-3.42-15.23a101.15,101.15,0,0,1-.31-16.78c.31-4.66,1.87-9,3.42-13.37a39.73,39.73,0,0,1,5.6-9c1.24-1.24,1.86-1.24,3.1-.93.31,12.12.63,23.93,6.53,34.5,1.24,0,2.49.31,3.73.31a1.26,1.26,0,0,1,.62-1.25c1.87-1.86,2.18-3.72,1.87-6.21-.31-.62.31-1.24.31-1.87.31-.62.62-.93.62-1.24-.62-2.17.31-4.35.31-6.84s-.31-5.28,1.55-7.77c.94-.93.63-2.48.63-3.73.31-1.24.31-2.79.62-4a56.52,56.52,0,0,0,1.86-14.29c0-.62.31-.93.31-1.25,1.25-2.17,1.56-4.66,3.42-6.52,4.66-4.35-2.17-11.19-6.21-11.5-2.8-.31-5.29-.93-7.77,0s-5.91,0-7.77,1.86c-1.87,2.18-.32,3.73,0,5.91,0,.93-.32,1.86-.32,2.8a9.27,9.27,0,0,1,.32,3.1,13.06,13.06,0,0,0-2.49-.93c-14.92-9.32-22.07,22.69-24.24,31.7-.82,3.55-.68,6.86-.85,10.36-2.61,1.65-5.26,3.23-7.85,4.87a2.34,2.34,0,0,1-1.56.31.3.3,0,0,0-.31-.31c.31-3.73-1.86-6.84-.31-10.57v-5c0-.93-.31-1.55-.31-2.49a3.31,3.31,0,0,1,0-2.48c1.56-1.56,1.56-3.42,1.87-5.29.31-1.55,1.24-3.1.93-4.66a17.72,17.72,0,0,0-1.24-6.83,33.31,33.31,0,0,0-3.42-6.53c-.94-1.24-2.18-2.8-3.73-3.11a21.23,21.23,0,0,1-2.8-1.86c-2.49-2.18-8.08-3.73-11.5-1.56a20.64,20.64,0,0,1-7.77,4,3.08,3.08,0,0,0-1.24,1.56c-.31,1.24-.31,2.48-.62,3.73-1.56,4-.32,8.39-1.56,13.36a17.6,17.6,0,0,1-6.84,3.42c-2.48.62-3.41,2.8-4,4.66-.62,3.11-.93,6.53-1.24,9.63a60.68,60.68,0,0,0-.62,7.46c-.31,4.36,0,8.71,0,13.06a5.23,5.23,0,0,0,.93,3.73,7.64,7.64,0,0,1,1.87,5,5.28,5.28,0,0,0,.31,2.17,85.44,85.44,0,0,0,5.59,12.13c.62.93,1.56,1.55,2.18,2.48,3.73,4.35,5.28,4.66,9.94,3.11,1.56-.31,3.42-.93,5.29-.31l5.59.93q5.6.93,8.39-3.73a58,58,0,0,0,3.11-6.21,35.18,35.18,0,0,0,.93-5.6c.93-3.42.93-7.15.93-10.88V160.7c3.49-.24,5.79-1.9,8.32-4.14a10.58,10.58,0,0,0,.07,1.66c.31,2.17.94,4,.94,6.21-.31,2.8-.94,5.29,0,8.09v1.24c-.31,6.84,1.86,13.05,6.83,17.71,1.56,1.25,1.87,2.8,3.42,3.73,3.73,2.18,8.7,2.49,12.43,2.8,4.67.31,9-1.55,12.75-4.35,2.79-1.87,4.35-5.91,7.15-8.39a22,22,0,0,0,4.66-5.91c1.86-4,4-6.21,6.83-9.94,1.69-2.24,3.11-6,4.29-9,.12,3,.18,5.91.06,8.37,0,5.59,1.86,10.87,3.73,16.16.62,1.86,4.66,1.24,6.22,2.17,2.48,1.25,5.28,0,8.08.62.62-2.17,1.24-2.79,1.86-5a2.35,2.35,0,0,1,.62-1.24c.31-.93.93-1.56.93-2.49.94-4,2.18-10.57,4.36-14.29a65.83,65.83,0,0,0,3.73-8.09,28.9,28.9,0,0,1,2.17-4.35,36.29,36.29,0,0,0,3.73-10.25,23.51,23.51,0,0,1,.31-4.66c0-1.56.93-2.18,3.11-1.87h.31v5.28c.31,4-2.49,29.84-1.86,33.88,1.24,7.46,2.79,14.61,4.35,21.76a4.11,4.11,0,0,0,1.86,3.1,33.4,33.4,0,0,0,5.59,3.42,7.82,7.82,0,0,0,5.91.94,2,2,0,0,0,1.87-1.56c1.55-3.73,1.55-7.77,3.1-11.81.31-.31.31-1.24.31-1.86a3.84,3.84,0,0,1,.32-1.87c1.24-3.42.93-7.15,1.24-10.56.11-.34.76-3.57,1.55-7.55a34.75,34.75,0,0,0,3.42,5.37,33.21,33.21,0,0,1,3.11,3.73,8.22,8.22,0,0,0,1.55,1.86,27.64,27.64,0,0,0,3.11,3.11,3.09,3.09,0,0,0,1.55,1.24,33.86,33.86,0,0,0,5.91,2.8,24.22,24.22,0,0,0,6.52,1.24c-.31-.31-.93-.31-1.24-.62v-.31c.62.31.93.31,1.55.62a.3.3,0,0,0-.31.31,24.49,24.49,0,0,0,6.84,0,6.53,6.53,0,0,0,3.42-1.24c1.55-.93,2.8-2.17,4.35-3.11q2.34-1.86,1.87-3.73c1.55-1.55,1.24-4,2.79-5.28A6.08,6.08,0,0,0,367.7,171C370.81,160.7,378.58,146.72,378,138ZM175.64,178.11a19.13,19.13,0,0,1-2.8,9,1.08,1.08,0,0,0-.31.62c-.31,0-.31,0-.93.31-2.49-3.41-3.42-7.14-5-10.87s-1.24-8.08-1.86-12.12a30.46,30.46,0,0,1,.31-11.81,8,8,0,0,1,4,2.48,24.07,24.07,0,0,0,5.59,3.42c1.87.62,1.87.62,2.18,2.49C176.88,167.23,176,172.52,175.64,178.11Zm2.48-32.32a5.61,5.61,0,0,1-1.24-1.56,42.39,42.39,0,0,0-1.24-5.28c-.94-2.49-.62-5-1.25-7.77a24.32,24.32,0,0,1,0-10.57c0-.62.31-.93.94-1.86C180,127.45,180.3,136.46,178.12,145.79Zm1.25,21.44a1.14,1.14,0,0,1,.31-.93v1.55a5.14,5.14,0,0,0-.31,3.11,10.76,10.76,0,0,1-.63,3.11c0-.31-.31-.31-.31-.62C178.74,171.58,179.06,169.41,179.37,167.23ZM180.92,179h-.31c0-.31,0-.31.31-.62Zm0-7.15a64,64,0,0,1-1.24,6.84c0,.62,0,.62-.94.62.32-1.24.32-1.86.63-2.8V175l.93-7.46a1.86,1.86,0,0,1,.31-1.24v3.11c0,.31.31.62.31,1.24C181.23,171,180.92,171.58,180.92,171.89Zm2.49,6.53v-.31h.31Zm19,2.8c1.87,1.24,1.56,3.11,1.87,5.28C202.36,185,202.36,183.08,202.36,181.22ZM298.08,120h-.31c-.31,0-.31-.31-.31-.62.31-1.55.31-3.42.62-5a1,1,0,0,0,.62-.31A42.49,42.49,0,0,0,298.08,120Zm3.11,22.07h-.31v-1.87h.31Zm.62,11.19h-.31v-1.87h.31Zm0-36.68c-.31,5.91-.62,12.12-.93,18,0,.31,0,.31-.31.62a.3.3,0,0,0-.31-.31c0-2.18-.62-4.35-.31-6.53.31-2.79.31-5.28.62-7.77a60.86,60.86,0,0,1,.62-7.77h.62Zm5,32c-.93,1.56-.93,3.73-1.24,5.6-.62-1.87-.31-10.26.31-12.74a47.17,47.17,0,0,0,.93,6.52C307.09,148,307.09,148.27,306.78,148.58Zm5.6-29.83c0,.93-.31,1.86-.31,2.79h-.31C311.76,120.61,310.83,119.68,312.38,118.75Zm-3.11,32h.31a56,56,0,0,0,.62,6.84c0,.31-.31.62-.93.31Zm23.62-31.39c0-1.24.62-2.18.93-3.42,0-1.24,1.24-2.17,1.56-3.11h.31c-.94,2.18-1.56,4.35-2.49,6.84A.3.3,0,0,0,332.89,119.37ZM336,180a9.3,9.3,0,0,1-2.49-5.9c1.24,2.18,1.87,4,2.8,5.9Zm-1.25-68.68a4.45,4.45,0,0,1,1.56-3.42.3.3,0,0,1,.31.31A29,29,0,0,0,334.75,111.29Zm4.67,72.1a6.75,6.75,0,0,0-1.25-1.86c.62-.31,1.25,1.24,1.56,1.55A.3.3,0,0,0,339.42,183.39Zm5.9-28.28a8.48,8.48,0,0,0-1.24,1.55,12.87,12.87,0,0,1-.62-4.66v-1.86c-1.25-2.8,0-5.6.62-8.08a52.66,52.66,0,0,1,4-11.81c.62-1.56,1.24-3.42,1.86-5.29a21.6,21.6,0,0,1,1.56-1.86,4.15,4.15,0,0,1,.31,1.55c0,2.8-.31,5.6-.31,8.71a7.62,7.62,0,0,1-.63,2.17c0,.62-.31,1.24-.31,1.87a11.86,11.86,0,0,1-.93,5.59c-1.24,3.11-2.48,6.53-3.73,9.63C345.63,153.56,345.63,154.18,345.32,155.11Z" transform="translate(-17.13 -32.46)"/><path d="M517.18,185c-1.24-1.56-3.1-4-5.59-5-2.49-.62-5.59-.31-8.08-.31-4.66.31-9.32.31-14,.63-1.55,0-3.42-.32-5,.31h-1.24c-.31,0-.93-.31-1.25,0-3.73.62-7.76.31-11.81.31h-.62c.31-1.25.31-2.49.62-3.73a33.08,33.08,0,0,0,2.49-5.91c.31-.62.62-1.55.93-2.17.31-1.25.63-2.18.94-3.11.31-.62.93-1.24,1.24-1.87,1.55-4,3.73-8.08,5.59-12.43.62-1.55,1.87-3.11,1.87-4.66s1.86-2.49,1.86-4a8,8,0,0,0,2.8-5c.31-.31.31-.62.62-.94,1.56-2.17,3.11-4.35,4.66-6.83a15.24,15.24,0,0,1,2.18-2.49,2.37,2.37,0,0,1,1.55-.62,25.35,25.35,0,0,1,6.84-.31h1.55a4.65,4.65,0,0,1,2.8-.62c.62,0,1.24.31,1.87-.62a32.28,32.28,0,0,1-2.18-3.42c-.93-1.56-1.55-3.42-3.42-4.67-.31-.31-.62-.93-.93-1.24a35.39,35.39,0,0,0-3.42-3.11c-.62-.31-6.53-.62-7.46,0-3.42,0-7.46.31-9.32-.31-.62-.31-1.56-.31-1.87.31a2.32,2.32,0,0,1-1.55.31c-6.84.32-14,.63-21.14.32-4,0-8.39-.32-12.43-.63a2.32,2.32,0,0,1-1.55-.31c-1.56-.62-3.11-1.55-4.66-2.17-.62-.31-.93,0-1.56.62-.31.62,0,1.55,0,2.17-.31,3.11,1.87,5.29,4.35,7.15a7.3,7.3,0,0,1,2.8,2.49c.62.93,2.18,1.55,3.11,2.17h1.86a161.85,161.85,0,0,0,17.1,1.25c1.86,0,3.42.31,5.59.31-.31.62-.62.93-.62,1.24-1.55,2.18-2.8,4.35-4.35,6.53l-6.53,10.25c-2.48,3.73-4.66,7.46-6.83,11.19-1.56,2.8-3.42,5.6-5,8.39-1.86,4-4,8.09-5.9,12.12-.82,1.43-1.49,2.86-2.13,4.28a8,8,0,0,0-1.6-.86c-2.48-.62-5.59-.31-8.08-.31-4.66.31-9.32.31-14,.63-1.56,0-3.42-.32-5,.31h-1.24c-.31,0-.93-.31-1.24,0-3.73.62-7.77.31-11.81.31h-.63c.31-1.25.31-2.49.63-3.73a33.81,33.81,0,0,0,2.48-5.91c.31-.62.62-1.55.93-2.17.32-1.25.63-2.18.94-3.11.31-.62.93-1.24,1.24-1.87,1.55-4,3.73-8.08,5.59-12.43.63-1.55,1.87-3.11,1.87-4.66s1.86-2.49,1.86-4a8,8,0,0,0,2.8-5c.31-.31.31-.62.62-.94,1.56-2.17,3.11-4.35,4.66-6.83a15.73,15.73,0,0,1,2.18-2.49,2.37,2.37,0,0,1,1.55-.62,25.37,25.37,0,0,1,6.84-.31h1.56a4.61,4.61,0,0,1,2.79-.62c.62,0,1.25.31,1.87-.62a34,34,0,0,1-2.18-3.42c-.93-1.56-1.55-3.42-3.42-4.67-.31-.31-.62-.93-.93-1.24a35.39,35.39,0,0,0-3.42-3.11c-.62-.31-6.53-.62-7.46,0-3.42,0-7.46.31-9.32-.31-.62-.31-1.56-.31-1.87.31a2.32,2.32,0,0,1-1.55.31c-6.84.32-14,.63-21.13.32-4,0-8.4-.32-12.44-.63a2.32,2.32,0,0,1-1.55-.31c-1.55-.62-3.11-1.55-4.66-2.17-.62-.31-.93,0-1.56.62-.31.62,0,1.55,0,2.17-.31,3.11,1.87,5.29,4.36,7.15a7.34,7.34,0,0,1,2.79,2.49c.62.93,2.18,1.55,3.11,2.17h1.87a161.47,161.47,0,0,0,17.09,1.25c1.86,0,3.42.31,5.59.31-.31.62-.62.93-.62,1.24-1.55,2.18-2.8,4.35-4.35,6.53l-6.53,10.25c-2.48,3.73-4.66,7.46-6.83,11.19-1.56,2.8-3.42,5.6-5,8.39-1.86,4-4,8.09-5.9,12.12a63.31,63.31,0,0,0-3.11,6.53,1.69,1.69,0,0,0,.62,2.49c.93.62,1.87,1.55,2.8,2.17a8.62,8.62,0,0,0,2.49,2.18,2.63,2.63,0,0,1,2.17,2.49c0,.31,0,.31.31.62,0,1.55.62,1.86,2.49,1.86.93,0,7.46.31,8.39-.31.93-.31,2.18,0,3.42,0a21,21,0,0,0,4.35-.62c.93-.31,1.86-.31,2.8-.62.93,0,1.86.31,2.48-.62h.63a37.58,37.58,0,0,1,5.9-.31,22.06,22.06,0,0,1,4.35-.31v-.32h-6.53c1.25-.31,2.18-.31,3.42-.62,3.73-.62,7.77-.62,11.5-.93a4.64,4.64,0,0,0,2.18-.31c1.55-.31,2.48-.93,4-.93H433c1.25,0,2.18-.62,3.42-.94,2.81-.51,5.61,0,8.42.06a6.84,6.84,0,0,0,2.14,1.81,2.63,2.63,0,0,1,2.18,2.49c0,.31,0,.31.31.62,0,1.55.62,1.86,2.49,1.86.93,0,7.46.31,8.39-.31.93-.31,2.17,0,3.42,0a21.12,21.12,0,0,0,4.35-.62c.93-.31,1.86-.31,2.8-.62.93,0,1.86.31,2.48-.62H474a37.77,37.77,0,0,1,5.91-.31,22.06,22.06,0,0,1,4.35-.31v-.32h-6.53c1.25-.31,2.18-.31,3.42-.62,3.73-.62,7.77-.62,11.5-.93a4.64,4.64,0,0,0,2.18-.31c1.55-.31,2.48-.93,4-.93h5.28c1.24,0,2.18-.62,3.42-.94,3.42-.62,6.84.32,10.26,0C520,187.43,518.12,185.88,517.18,185Zm-33.25-42.89c.31,0,.31,0,.62.31-.31.31-.93.62-1.24,1.24l-.31-.31C483.31,143,483.62,142.37,483.93,142.06Zm-1.87,2.79h.32a1.62,1.62,0,0,1-.63,1.25C481.75,145.79,482.06,145.48,482.06,144.85Zm0,2.8.32.31-.63.62h-.31C481.75,148.27,482.06,148,482.06,147.65Zm-.62-1.24a5,5,0,0,1-1.24,2.17C480.51,147.65,480.82,146.72,481.44,146.41Zm-68.68-4.35c.31,0,.31,0,.62.31-.31.31-.93.62-1.24,1.24l-.31-.31C412.14,143,412.45,142.37,412.76,142.06Zm-1.86,2.79h.31a1.59,1.59,0,0,1-.63,1.25C410.58,145.79,410.9,145.48,410.9,144.85Zm0,2.8.31.31-.63.62h-.31C410.58,148.27,410.9,148,410.9,147.65Zm-.63-1.24a5,5,0,0,1-1.24,2.17C409.34,147.65,409.65,146.72,410.27,146.41Zm16.79,42a27.6,27.6,0,0,1,5.28-.32C430.48,188.68,428.61,188.37,427.06,188.37Zm71.17,0a27.55,27.55,0,0,1,5.28-.32C501.64,188.68,499.78,188.37,498.23,188.37Z" transform="translate(-17.13 -32.46)"/><path d="M593.64,130.87c-1.56,1.55-2.49,3.11-4.35,4.66a38.44,38.44,0,0,0-4,3.42,15.28,15.28,0,0,1-2.8,3.42c-.62.62-.93,1.24-1.55,1.86-2.18,3.73-4.36,7.15-6.53,10.88v.31a6.66,6.66,0,0,1-1.24,1.87,3.53,3.53,0,0,1-2.49.31c-.93,0-1.56-.62-2.18-1.56s-.31-1.55-.31-2.48V132.73a16.18,16.18,0,0,1,.62-3.42c.94-4,1.87-8.39,2.8-12.74,0,0,.62-1.55.31-1.86-.93-.62-2.17-2.18-3.11-2.49a28.8,28.8,0,0,0-10.25-.93,5.69,5.69,0,0,0-5,5.59c0,13.37-4,5.6-11.19,7.15-3.42,0-7.15,0-10.57-.31-4.35-.31-7.46,2.18-10.57,5s-7.15,24.87-7.77,28.6c-.62,5.59,0,10.87.31,16.47.31,1.55,0,2.79.31,4.35a5.19,5.19,0,0,0,.32,2.18c.93,2.48,4.66,4.35,6.83,5.9.94.62,2.49,2.18,3.73,2.18a12.87,12.87,0,0,0,5-.94,5.3,5.3,0,0,0,2.18-.31c.31,0,.62-.31.93-.62.94-1.24,2.49-1.55,3.73-2.49,1.87-.93,1.87-2.79,1.87-4.66.31-4.35,5.59-21.13,7.77-23.31l1.86-1.86L549.5,156a4.33,4.33,0,0,1,.63,1.87c1.24,8.39,2.79,19.89,4.66,28,0,.62,0,.93.31,1.24.31.93.93,1.56.93,2.49a1.86,1.86,0,0,1,.31,1.24c.94,4.66,10.57,6.22,15.54.62a14.36,14.36,0,0,0,2.8-7.14,97.33,97.33,0,0,0,1.55-13.68c0-2.8,1.25-5.28,2.18-8.08,0-.62.31-1.24.31-1.87A17.48,17.48,0,0,1,580,157c.94-2.18,2.18-4.36,3.11-6.22,1.24-2.18,3.11-4,4.35-6.22,1.87-2.79,3.42-5.59,5-8.39.94-2.17,1.87-4,2.8-5.9a1.15,1.15,0,0,0,.31-.94A8.56,8.56,0,0,0,593.64,130.87Zm-46,6.21c-1.86,1.87-2.8,4.36-4,6.84L538,154.18c-.94,2.17-1.87,4-2.8,5.9l-1.56,2.8-1.86-2.49c-2.49-3.73.93-13,2.8-16.78a50.27,50.27,0,0,1,4.35-6.84c1.86-2.17,3.73-4.35,6.53-5.28l1.55-.93.62,1.55c.62.62.62,1.25.93,1.87A5.24,5.24,0,0,1,547.64,137.08ZM554.17,170a4,4,0,0,1-.31-1.87h.31a4,4,0,0,0,.31,1.87Zm2.48,13.36c0-.93-.31-1.55-.31-2.17a19.76,19.76,0,0,1,.62,2.17Zm5-5.59c-.94,1.86-.62,4.35-.62,6.53-.94-2.18-2.18-12.13-1.87-14.92h.31a33.55,33.55,0,0,0,2.18,7.46Zm4,10.88c-.31-2.8-.94-5.6-1.25-8.39h.31c.63,2.48,1.25,5.28,1.87,7.76C566.6,188.68,566.29,189,565.67,188.68Z" transform="translate(-17.13 -32.46)"/><g id="qsxoy8"><path d="M584.27,128.77a16.54,16.54,0,0,0-2.18,1.23,22.5,22.5,0,0,0-2.53,2.35,3.36,3.36,0,0,0-.63,1.2c-.38,1-.67,2.07-1.11,3a1.33,1.33,0,0,1-1,.71c-.32,0-.73-.46-.91-.81-.44-.85-.78-1.76-1.14-2.65,0-.09,0-.22,0-.33.07.06.17.2.21.19s.34-.15.35-.26a4.4,4.4,0,0,0,.06-1.3,7.55,7.55,0,0,1,.69-4.13,16.55,16.55,0,0,0,.67-5.49,19.58,19.58,0,0,1,.28-4.07,22.06,22.06,0,0,1,1.77-4.57,40.35,40.35,0,0,1,2.31-3.53,1.63,1.63,0,0,0,.21-.78c0-1.07,0-2.13,0-3.2a1.34,1.34,0,0,0-.07-.27.78.78,0,0,0-.15.22c-.1.45-.19.9-.29,1.35,0,.1-.08.2-.12.3,0-.1-.14-.2-.12-.29.08-.62.15-1.24.28-1.84a8.22,8.22,0,0,1,1.59-3.41A3.54,3.54,0,0,1,583,102c-.06.18-.11.37-.18.54s-.2.41-.3.63a1.07,1.07,0,0,0-.07.19,2,2,0,0,0,0,.26c0-.07.11-.13.12-.2a.82.82,0,0,0,0-.27c.19-.17.4-.34.58-.53a13.08,13.08,0,0,0,1.49-1.68c.62-1,1.58-1.64,1.77-3a39.13,39.13,0,0,1,1.36-5c0-.11.12-.23.11-.33a5.53,5.53,0,0,0-.17-.64c-.13.14-.32.26-.39.43-.4,1-.79,2-1.17,3.08a.3.3,0,0,0,0,.13.31.31,0,0,0,0,.1l-.08-.24.32.22h0a8.74,8.74,0,0,1-.48,1,1.32,1.32,0,0,1-.38.32c0-.14-.1-.3-.06-.42.5-1.61,1-3.22,1.54-4.81.78-2.24,2.55-3.81,3.9-5.66.7-1,1.71-1.69,2.38-2.67a14.06,14.06,0,0,0,1.91-3.52A12.49,12.49,0,0,1,597,77.22c0-.06.2,0,.3-.07a1,1,0,0,1-.1.24c-.29.44-.59.88-.87,1.33a.85.85,0,0,0,0,.37c.12,0,.29,0,.35-.14.5-.72,1.31-1.19,1.53-2.17s.89-1.11,1.77-.83a.64.64,0,0,0,.45,0,4.47,4.47,0,0,1,3.82-.38,25.3,25.3,0,0,1,2.59.85c.41.17,1,.47,1.06.8.13.58.52.68.89.81a4.1,4.1,0,0,0,1.42.26,4.84,4.84,0,0,1,2.56.63,3.61,3.61,0,0,0,3.93,0,15,15,0,0,1,3.19-1.26,1,1,0,0,1,.87.27,1,1,0,0,0,1.58,0,13.76,13.76,0,0,1,3.57-3.1,20.25,20.25,0,0,0,3.25-2.36A6,6,0,0,1,631,71.31c1.53-.63,3.08-1.25,4.66-1.74a12,12,0,0,1,2.81-.39,4.14,4.14,0,0,1,3.81,2.88,3.45,3.45,0,0,1-.8,3,3.57,3.57,0,0,1-2.29,1c-2.5.42-5,0-7.46.18a9.43,9.43,0,0,0-5.44,1.83c-.82.67-1.74,1.22-2.55,1.91a3.11,3.11,0,0,0-1.16,2.56c0,.61.31.91.93.84,1.29-.17,2.58-.45,3.88-.49a14,14,0,0,1,3.09.34,9.19,9.19,0,0,1,1.71.67,4.68,4.68,0,0,0,4-.28A14.1,14.1,0,0,1,638,83c.17,0,.4.1.6.17a1.92,1.92,0,0,1-.44.37c-.89.37-1.8.71-2.69,1.08a1.94,1.94,0,0,0-1.4,1.72.9.9,0,0,0,.86,1,3.93,3.93,0,0,0,3.27-.77,1.4,1.4,0,0,0,.37-.4c.87-1.61,2.42-2,4-2.18a11.59,11.59,0,0,1,2.34.18A1.11,1.11,0,0,1,646,85a.47.47,0,0,0,.2.26c.63.38,1,1.41.47,1.8-.73.51-.89,1.54-1.78,1.78a3.23,3.23,0,0,1-1.35,0c-.4-.07-1,.08-1-.63,0-.09-.39-.25-.56-.21-.8.17-1.58.4-2.37.6-.21.06-.52,0-.64.14a14.85,14.85,0,0,0-1,1.43s0,.16,0,.2c-.6.74-.21,1.27.26,1.92.22.32,0,.94.07,1.41.14.94.36,1.86.52,2.79a2.07,2.07,0,0,1,0,.82c-.14.53-.74,1-.11,1.62,0,0,.18.59-.36.52-.06,0-.19.4-.27.62a7.69,7.69,0,0,1-.45,1.19,5.32,5.32,0,0,1-1.85,1.92,2.07,2.07,0,0,1-.61.27,41.33,41.33,0,0,1-4.68.61,6.19,6.19,0,0,0-2.67,1.05c-1,.5-2.16.8-3.22,1.25-1.72.75-3.57.31-5.34.6a15.2,15.2,0,0,0-5.58,1.74,11.51,11.51,0,0,1-3.25,1.32,12.47,12.47,0,0,0-4.68,2.29,12.17,12.17,0,0,1-3.19,1.63,16.63,16.63,0,0,0-4.58,2.28,15.36,15.36,0,0,1-1.71,1,2.27,2.27,0,0,0-1.33,1.72,1.44,1.44,0,0,1-.58.73c-1.44,1.15-2.89,2.3-4.36,3.41a18.27,18.27,0,0,0-4.72,4.6c-.18.28-.62.38-.94.58s-.2.35.06.48ZM598.56,87l.06-.1a.61.61,0,0,0,0,.12l0,0Zm8.2,20.76a.77.77,0,0,0,.26-.07,1.2,1.2,0,0,0,.23-.22,1,1,0,0,0-.33.09c-.07,0-.1.14-.15.22l-.4.14,0,.1Zm28-13.83c.06,0,.14.07.19,0a1.37,1.37,0,0,0,.32-.16,1,1,0,0,1,0-.11l-.33.13a.88.88,0,0,0-.15.12l0,0Zm-42.15.5a2.24,2.24,0,0,0-.45.27,3.33,3.33,0,0,0-.35.54,3.4,3.4,0,0,0,.47-.38,2.69,2.69,0,0,0,.31-.44Zm-8.37,22.13-.15.21.07,0,.08-.25c.56-.77.81-.85,1.63-.49.37.16.7.27,1-.16a1.88,1.88,0,0,0,0-1.51,1.75,1.75,0,0,0-2.42-.32,3.35,3.35,0,0,0-2,3c0,.27.4.57.62.86.25-.19.75-.48.72-.57C583.52,116.77,584,116.7,584.24,116.52Zm30-25-.07-.23a16,16,0,0,0-2.35.72,14.22,14.22,0,0,0-2.93,1.69c-1.34,1-2.55,2.24-2.3,4.21.11.8.46,1.09,1.47,1.36.81.22.79-.41,1-.81.08-.14.12-.3.2-.44a4.83,4.83,0,0,1,2.52-2.62c1.83-.66,3.68-.79,5.35.54a1.39,1.39,0,0,1,.23.31,1.8,1.8,0,0,1-.32-.06c-.79-.32-1.52-.69-2.29.22-.43.52-1,.21-1.24-.43,0-.12-.38-.28-.49-.22a11.07,11.07,0,0,0-1.63.87c-.65.43-.61.57.08.89a2.54,2.54,0,0,1,.45.36,5.46,5.46,0,0,1-.45.39,2.34,2.34,0,0,1-.4.12c-.21.1-.41.22-.62.33.16.21.27.5.48.63a1.14,1.14,0,0,0,.83.17c1.58-.5,3.16-1,4.71-1.62a2.87,2.87,0,0,0,1-.91c.32-.38.55-.83.85-1.22a2.87,2.87,0,0,0,.21-3.29,4.49,4.49,0,0,0-3.19-1.24Zm-27.11,16c0,.89.31,1.54.81,1.62a1.48,1.48,0,0,0,1.48-1.2,5.89,5.89,0,0,1,.21-.59,8.47,8.47,0,0,1,2.09-2.73c.36-.34.76-.83,1.17-.86a4.54,4.54,0,0,1,2.69.27c.53.29,1,0,1.11-.55s.23-.89.32-1.35a1.25,1.25,0,0,0-1.1-1.66,5.09,5.09,0,0,0-2.93.31,13.3,13.3,0,0,0-3.83,2.7A7.32,7.32,0,0,0,587.1,107.53Zm14.37-14.67a3.32,3.32,0,0,1,1,.33.57.57,0,0,0,.84,0,1.42,1.42,0,0,0-.09-2.21c-.78-.69-1.59-.42-2.42-.19a3.66,3.66,0,0,0-2.6,2.63c-.07.22.07.51.12.78a4,4,0,0,1,.46-.24.27.27,0,0,1,.16,0c.23.5.34.05.43-.07C599.88,93.09,600.69,93,601.47,92.86Zm18.26,8.56a5,5,0,0,0-.81.2c-1.18.46-2.32,1-3.52,1.4a16.61,16.61,0,0,0-4.63,1.92c-.78.53-1.59,1-2.38,1.54-.07,0-.07.2-.11.3a2.87,2.87,0,0,0,.93,0c2.11-.89,4.21-1.77,6.28-2.73,1.44-.66,2.84-1.42,4.24-2.15a1.4,1.4,0,0,0,.37-.36Zm-14.63.29c.15-.45-.2-.75-.62-1.06-1.35-1-4.26.48-4.62,1.73a1.14,1.14,0,0,0,.38,1.36c.35.25.53.26.73-.18a2.29,2.29,0,0,1,3.13-.76c.54.41.72.34.89-.34C605,102.26,605.05,102.05,605.1,101.71Zm-12.34,3a2.19,2.19,0,0,0-1.65,1.32,17.24,17.24,0,0,0-.73,2.24c-.1.34.13.48.45.32a10.45,10.45,0,0,0,1.73-1c1-.83,2-1.74,3-2.63.09-.09.1-.29.14-.44a4.81,4.81,0,0,0-1.47,0C593.67,104.75,593.24,105.07,592.76,104.73Zm7.93,5.53a9.82,9.82,0,0,1-1.58.63,8.3,8.3,0,0,0-4.2,2.54c-1.36,1.45-2.62,3-3.91,4.5a2.48,2.48,0,0,0-.28.64l.48-.36c.16-.13.33-.25.48-.39a22.52,22.52,0,0,0,2.56-2.51,14.29,14.29,0,0,1,4.69-3.82c.62-.33,1.3-.55,1.94-.83.11,0,.16-.19.24-.29Zm-12.59,10.3-.09-.17c-.1,0-.23,0-.3.06-.69.6-1.36,1.23-2.06,1.82a29.5,29.5,0,0,0-5.21,5.89,6.31,6.31,0,0,0-.44,1,4.52,4.52,0,0,0,.9-.63c1.63-1.86,3.23-3.76,4.86-5.63.63-.72,1.32-1.39,2-2.07A1.59,1.59,0,0,1,588.1,120.56Zm49.82-50.91c-1,.31-2.1.62-3.15.95-.1,0-.17.17-.25.27.12,0,.25.11.36.09a13.4,13.4,0,0,1,5.6.34,5.17,5.17,0,0,0,.55.07,2,2,0,0,0-.28-.6A4.2,4.2,0,0,0,637.92,69.65ZM592.1,86.35l.06,0c.91-.73,2-1.3,2.44-2.47.29-.81.42-1.68.63-2.52.06-.23.14-.45.21-.68a5.57,5.57,0,0,0-.52.57c-.12.18-.19.41-.3.61-.33.65-.64,1.32-1,2-.49.8-1,1.56-1.56,2.34a.39.39,0,0,0-.06.18S592.06,86.33,592.1,86.35Zm50.77-.27a5.4,5.4,0,0,0,1-.27c.14-.06.23-.33.26-.51S644,85,643.87,85a5.85,5.85,0,0,0-3.31,1c-.07,0-.07.19-.11.29s.26.08.3,0A2.22,2.22,0,0,1,642.87,86.08Zm-7.64,6.57c0-.08-.07-.18-.09-.18a1,1,0,0,0-.38.11c-1,.6-2.06,1.21-3.08,1.83-.11.07-.15.25-.22.37.15,0,.35.11.46,0,1-.59,2-1.2,3-1.81A1.67,1.67,0,0,0,635.23,92.65Zm-9,5.76c1.09-.68,2.06-1.28,3-1.91.08,0,0-.3,0-.45a1,1,0,0,0-.43,0c-.75.44-1.51.89-2.24,1.37a1.71,1.71,0,0,0-.45.51C626.11,98,626.18,98.17,626.23,98.41Zm-24.69-5.1A1.62,1.62,0,0,0,600,94.53c0,.06.24.22.31.19a8.63,8.63,0,0,0,1.31-.6.68.68,0,0,0,.3-.53C601.9,93.44,601.61,93.35,601.54,93.31ZM586.31,117a2.23,2.23,0,0,0-.37-.18c-.31-.07-.74-.28-.92-.15a4.81,4.81,0,0,0-.93,1.11s0,.18,0,.18a2,2,0,0,0,.77-.08C585.35,117.69,585.75,117.39,586.31,117Zm16.7-14.2c-.34.32-.64.59-.92.88,0,0,0,.15,0,.24l.87-.16a.57.57,0,0,0,.25-.11c.15-.11.29-.25.44-.37Zm13.55-18.71.25.06.93-1.28c-.11-.07-.29-.22-.3-.2a14.67,14.67,0,0,0-1,1.1S616.52,84,616.56,84.12Zm19.81,8.41-.79.48c.21.15.41.4.62.4s.34-.29.47-.48S636.51,92.71,636.37,92.53Zm-22.08,4.06.63-.52c-.1-.09-.25-.27-.3-.25a7.71,7.71,0,0,0-.72.44ZM599.52,77.36l.13-.23c-.11,0-.25-.12-.33-.08a2.21,2.21,0,0,0-.47.35s.1.17.12.17C599.16,77.51,599.34,77.43,599.52,77.36Zm-23,59.64c.11-.23.18-.31.16-.36s-.21-.38-.31-.57c0,.06-.15.14-.14.18C576.33,136.46,576.42,136.65,576.56,137Zm62.22-62.08,0-.1a1.37,1.37,0,0,0-.29.07,2.67,2.67,0,0,0-.41.22c.09,0,.19.08.27,0A5.21,5.21,0,0,0,638.78,74.92ZM611.59,98c-.17-.12-.25-.21-.3-.2a3.21,3.21,0,0,0-.46.22c.08,0,.15.11.22.11A4.86,4.86,0,0,0,611.59,98Zm19.78-14.14a2.44,2.44,0,0,0-.15.24,2.88,2.88,0,0,0,.33.28c0-.07.13-.17.1-.21A1.46,1.46,0,0,0,631.37,83.87ZM579,114.37a6.12,6.12,0,0,0,.37-.53s0-.14-.06-.21a3.07,3.07,0,0,0-.34.38S579,114.16,579,114.37ZM632.1,84.23c-.06.1-.12.16-.13.23s.08.08.13.12.12-.1.14-.17S632.17,84.32,632.1,84.23ZM602.84,85.4c-.09-.07-.16-.15-.18-.14s-.15.14-.23.21.1.11.12.1A2.38,2.38,0,0,0,602.84,85.4ZM612,79c-.1-.09-.16-.18-.21-.17a.22.22,0,0,0-.17.14s.07.16.12.16S611.86,79,612,79Zm.67.65a.6.6,0,0,0-.13-.14s-.09,0-.09.07a.38.38,0,0,0,0,.17Zm1.86.61c-.11,0-.18-.11-.21-.1a1.71,1.71,0,0,0-.25.22.54.54,0,0,0,.09.12C614.26,80.39,614.36,80.31,614.52,80.21Zm22.56,12c-.1-.06-.16-.13-.19-.12a.24.24,0,0,0-.11.15s.07.11.1.1S637,92.29,637.08,92.22Zm-58.67,41.57.1.06a.31.31,0,0,0,0-.12s-.07,0-.1-.06Zm25.24-57.41,0-.1s0,0,0,0a.29.29,0,0,0,0,.09Zm29,25.36-.09.07.09,0s0,0,.06,0Zm-7.15-3.35,0-.1s-.11,0-.11,0a.35.35,0,0,0,.05.13ZM604.29,76l0,0,0,0Zm34.79-4.42H639a.2.2,0,0,0,0,0h.12A.2.2,0,0,0,639.08,71.62ZM638,92.36l0,0,.06,0s0,0,0-.06Zm-60.3,43.37v.05l.08,0s0,0,0,0S577.72,135.72,577.71,135.73Zm37.87-51.16,0,0v0Z" transform="translate(-17.13 -32.46)"/><path d="M661.21,80.84c-.5-.1-1.15-.23-1.81-.38-2.2-.5-4.39-1.1-6.62-1.46a14.3,14.3,0,0,0-3.51.11c-.87.07-1.73.27-2.59.4a1.82,1.82,0,0,1-.33,0c.08-.1.14-.24.25-.29,1-.5,2-1,3-1.47,1.33-.7,2.63-1.47,4-2.17a4.6,4.6,0,0,1,1.08-.22,9.74,9.74,0,0,1,6.58.9,4.31,4.31,0,0,1,2.18,3.2c.12.47-.53,1.14-1.18,1.26A8.43,8.43,0,0,1,661.21,80.84Zm1.4-2.23c-.18-.32-.25-.49-.36-.64a4.63,4.63,0,0,0-3.81-1.2c-.17,0-.3.23-.45.36.18.09.37.28.55.27a3.71,3.71,0,0,1,2.49.86,4.18,4.18,0,0,0,1,.55C662.13,78.86,662.36,78.69,662.61,78.61Z" transform="translate(-17.13 -32.46)"/><path d="M671.59,78.5c1.4.13,3,.83,3,2.31,0,.73-.26,1-1,.88-.52-.09-1-.24-1.54-.38-.08,0-.21-.08-.22-.15-.16-.76-.84-1-1.32-1.53-.28-.27,0-.84.41-1A3.29,3.29,0,0,1,671.59,78.5Z" transform="translate(-17.13 -32.46)"/><path d="M574.76,131.16a.3.3,0,0,1,0-.14c0-.17.09-.33.14-.5a3.44,3.44,0,0,1,0,.45,1.24,1.24,0,0,1,0,.27c0,.2,0,.39-.07.58Z" transform="translate(-17.13 -32.46)"/><path d="M585.58,97.9l-.15.25a.62.62,0,0,1,0-.18,1.12,1.12,0,0,1,.11-.25Z" transform="translate(-17.13 -32.46)"/><path d="M638.06,91.52l-.07-.1.14-.08s0,.08,0,.11S638.1,91.49,638.06,91.52Z" transform="translate(-17.13 -32.46)"/><path d="M638.58,90.78l-.07-.09s0,0,0,0l.1,0Z" transform="translate(-17.13 -32.46)"/><path d="M638.36,90.11l.09.06a.61.61,0,0,1-.07.1l-.08,0Z" transform="translate(-17.13 -32.46)"/><path d="M641.9,88.77l0,0-.09,0,0-.05Z" transform="translate(-17.13 -32.46)"/><path d="M574.85,132.52a.34.34,0,0,1,.07.11s0,0-.08.07,0,0,0-.06A.56.56,0,0,1,574.85,132.52Z" transform="translate(-17.13 -32.46)"/><path d="M639.34,89.88l-.12.22-.1-.14.22-.07Z" transform="translate(-17.13 -32.46)"/><path d="M575.16,135.55l-.06-.14-.05.05.11.09Z" transform="translate(-17.13 -32.46)"/><path d="M575.16,135.55l0,.24,0,0c0-.07,0-.15.08-.22Z" transform="translate(-17.13 -32.46)"/><path d="M639.34,89.89v0Z" transform="translate(-17.13 -32.46)"/><path d="M586.39,95.73v-.1a.29.29,0,0,0,0,.09Z" transform="translate(-17.13 -32.46)"/><path d="M584.34,128.57a1.59,1.59,0,0,0-.07.2v0c0-.06.05-.13.07-.2Z" transform="translate(-17.13 -32.46)"/><path d="M584.54,128.49l-.2.08v0l.17-.09Z" transform="translate(-17.13 -32.46)"/><path d="M584.52,128.5l0,0s0,0,0,0Z" transform="translate(-17.13 -32.46)"/></g><path d="M239.2,220.88c-2.59,0-5.53,1.62-7.55,1.62-.4,0-.58-.41-.58-1.16v-.57c0-1.67-1.67-2.19-3.68-2.19s-2.31.75-2.31,2.36c0,1.09.23,2.19.23,2.48l3,23.5,2.25,21.37c.17,0,.51-.17.46-.23l6.56-4.78a.81.81,0,0,0,.47-.63,2.49,2.49,0,0,0-.18-.63c-3.22-9.91-4.15-15-5.36-19.94.06-1.32,1.21-1.55,2.6-1.55,1,0,2.13.17,3,.17,5.82,0,9.91-6.34,9.91-11A8.56,8.56,0,0,0,239.2,220.88Zm-4.73,13.6c-1.15,0-2.19-.23-2.42-1.1a6.29,6.29,0,0,1-.28-2c0-2.6,1.9-5.3,5.87-5.3a3.47,3.47,0,0,1,3.75,3.63C241.39,232.63,238.45,234.48,234.47,234.48Z" transform="translate(-17.13 -32.46)"/><path d="M256.71,221h-.46l-5.47,2.07v20.05h5.07l1.72-20.05V221.4C257.34,220.94,257.11,221,256.71,221Z" transform="translate(-17.13 -32.46)"/><path d="M255.21,208.32c-3.4,0-7.43,3-7.43,6.57,0,2.13,4.38,4.15,6.22,4.15,3.52,0,5.24-2.77,5.24-5.94C259.24,210.92,257.8,208.32,255.21,208.32Z" transform="translate(-17.13 -32.46)"/><path d="M280,236.44c0-.18-1.21-.18-2.19-.18h-4.26l.06-1.09c2.53-3,6-5.3,6-8.24,0-2.71-.69-5.7-3.23-5.7H275.2c-4.84,0-16.13.57-16.13,1.73v.92c0,.92-.06,2.07-.06,3.05v.92c0,.87.41,1,1.15,1l10.72-1c.46.06,1.15,0,1.15.69,0,5.13-10.19,6-10.43,11.35l-.05.23v.35c0,1.84.75,4.2,2.3,4.38h.87c1.72-.75,15.95-1.56,15.95-3.86l-.05-3.75Z" transform="translate(-17.13 -32.46)"/><path d="M302.68,236.44c0-.18-1.21-.18-2.19-.18h-4.26l0-1.09c2.54-3,6-5.3,6-8.24,0-2.71-.7-5.7-3.23-5.7H297.9c-4.84,0-16.13.57-16.13,1.73v.92c0,.92-.06,2.07-.06,3.05v.92c0,.87.4,1,1.15,1l10.72-1c.46.06,1.15,0,1.15.69,0,5.13-10.2,6-10.43,11.35l-.06.23v.35c0,1.84.75,4.2,2.31,4.38h.86c1.73-.75,16-1.56,16-3.86l-.06-3.75Z" transform="translate(-17.13 -32.46)"/><path d="M316.68,218.29c-7.26,0-10.49,6.57-10.49,10.66,0,.86.17,3,2,3H309c1.26,0,3.57-.05,3.57-.46v-5.7c0-1.61,2.76-2.13,4.55-2.13,5.36,0,5.76,4.32,5.76,7.37v1.44a1.9,1.9,0,0,1-.11.81l-.41.29c-6.68.28-15.78,1.26-15.78,7.14,0,3,4.78,4.38,8.75,4.38,2.37,0,4.38-1.15,6.46-1.15,1.21,0,2,.92,3.51.92h.63c1,0,2.37-.12,2.37-.64V230.1C328.26,225.2,325.26,218.29,316.68,218.29Zm-.41,23c-1.67,0-3.4,0-3.4-1.49,0-1.85,2.83-2,4.73-2h1.61c1.21.29,1.21.69,1.21,1.44C320.42,241,318.64,241.33,316.27,241.33Z" transform="translate(-17.13 -32.46)"/><path d="M412.76,220.88c-2.59,0-5.53,1.62-7.54,1.62-.41,0-.58-.41-.58-1.16v-.57c0-1.67-1.67-2.19-3.69-2.19s-2.3.75-2.3,2.36c0,1.09.23,2.19.23,2.48l3,23.5,2.25,21.37c.17,0,.52-.17.46-.23l6.57-4.78a.79.79,0,0,0,.46-.63,2.46,2.46,0,0,0-.17-.63c-3.23-9.91-4.15-15-5.36-19.94.06-1.32,1.21-1.55,2.59-1.55,1,0,2.14.17,3,.17,5.82,0,9.91-6.34,9.91-11A8.57,8.57,0,0,0,412.76,220.88ZM408,234.48c-1.15,0-2.19-.23-2.42-1.1a6.31,6.31,0,0,1-.29-2c0-2.6,1.9-5.3,5.88-5.3A3.46,3.46,0,0,1,415,229.7C415,232.63,412,234.48,408,234.48Z" transform="translate(-17.13 -32.46)"/><path d="M433.67,218.29c-7.25,0-10.48,6.57-10.48,10.66,0,.86.17,3,2,3H426c1.26,0,3.57-.05,3.57-.46v-5.7c0-1.61,2.76-2.13,4.55-2.13,5.36,0,5.76,4.32,5.76,7.37v1.44a1.68,1.68,0,0,1-.12.81l-.4.29c-6.68.28-15.78,1.26-15.78,7.14,0,3,4.78,4.38,8.75,4.38,2.36,0,4.38-1.15,6.45-1.15,1.21,0,2,.92,3.52.92h.63c1,0,2.36-.12,2.36-.64V230.1C445.25,225.2,442.26,218.29,433.67,218.29Zm-.4,23c-1.67,0-3.4,0-3.4-1.49,0-1.85,2.83-2,4.73-2h1.61c1.21.29,1.21.69,1.21,1.44C437.42,241,435.63,241.33,433.27,241.33Z" transform="translate(-17.13 -32.46)"/><path d="M468.12,219.73a14.86,14.86,0,0,0-7.6-1.9c-5.82,0-9.16,2-10.83,5a4.69,4.69,0,0,0-.46,1.56c0,2.13,2.3,4.84,5.24,6a16.77,16.77,0,0,1,2.13.8c1.1,0,5.13,3.57,5.76,3.57v1.73c0,.06-.23.29-.23.46v.12c-.4.11-1.44,1.09-1.61,1.09a6.07,6.07,0,0,1-2.71.52c-3.63,0-2.65-3.92-5.13-3.92-1.32,0-4.61,1.56-4.61,2.48,0,3.46,5.54,5.19,10.6,5.19,6,0,10.14-3,10.14-6.4a6.61,6.61,0,0,0-2.3-4.84v-.17c-.23-.63-.75-.81-1.44-1.27-2.3-1.55-8.7-3.11-8.7-5.36,0-1.21,1.33-2,3.46-2A19.22,19.22,0,0,1,464,223c.93.17,1.62.75,2.71.75a1.54,1.54,0,0,0,.75-.18c0-1.09,2.19-1.78,2.19-2.65l-.11-.23Z" transform="translate(-17.13 -32.46)"/><path d="M493.7,235.28l-4.32-.05-.41.34c-1.09,6-3.22,7.09-4.55,7.09-4,0-5-3.69-5-7.09,0-3.91,1.1-6.8,1.1-7.77,0-.06-.06-.18-.06-.24l.46-.23c.52,0,1.56.12,2.65.12s2.77-.12,2.77-.58l1-6.79c0-.81-3.52-.52-3.52-1.73L486.73,208c0-1.85-2.83-4.21-4.44-4.21s-2.13,1.32-2.41,2.42l-2.14,11.58-.4.17a18.4,18.4,0,0,0-3.34-.34c-1.44,0-2.71.23-2.94,1.55a22.5,22.5,0,0,0-.46,3.46c0,2.76,1.9.92,4.21,2.94a49.68,49.68,0,0,0-1.1,9.21c0,6.05,2.19,13,11.7,13,6.68,0,9.85-6,9.85-10.25C495.26,236.49,495,235.46,493.7,235.28Z" transform="translate(-17.13 -32.46)"/><path d="M507.24,218.29c-7.26,0-10.49,6.57-10.49,10.66,0,.86.18,3,2,3h.81c1.27,0,3.57-.05,3.57-.46v-5.7c0-1.61,2.77-2.13,4.55-2.13,5.36,0,5.76,4.32,5.76,7.37v1.44a1.9,1.9,0,0,1-.11.81l-.41.29c-6.68.28-15.78,1.26-15.78,7.14,0,3,4.78,4.38,8.76,4.38,2.36,0,4.37-1.15,6.45-1.15,1.21,0,2,.92,3.51.92h.64c1,0,2.36-.12,2.36-.64V230.1C518.82,225.2,515.82,218.29,507.24,218.29Zm-.4,23c-1.68,0-3.4,0-3.4-1.49,0-1.85,2.82-2,4.72-2h1.61c1.21.29,1.21.69,1.21,1.44C511,241,509.2,241.33,506.84,241.33Z" transform="translate(-17.13 -32.46)"/><path d="M381.09,241.66c-1.92-1.33-3.59-2.54-5.09-3.65a11.48,11.48,0,0,0,2.61-6.73l-7-.17c0,.29,0,.4-.06.46-.19.57-.43,1.42-.76,2.37-2.16-1.75-3.9-3.24-5.62-4.65l-.12,0c5.82-2.37,7.75-5.34,7.77-8.43,0-4.14-5.13-6.62-9.57-6.62-5.35,0-9.79,3.51-9.79,8.06,0,2.65,2.81,4.05,3.69,5.94v.11c-3.06,2.31-6.23,4.55-6.23,8.13,0,5.82,5.07,8.52,11.76,8.52a16.19,16.19,0,0,0,8.34-2.47l8.05,8.6c.14-.11.31-.45.23-.47l2.35-7.77a.78.78,0,0,0,0-.78C381.47,241.88,381.27,241.81,381.09,241.66Zm-18-21.24c1.5,0,3.86.23,3.86,1.84s-2.19,3-3.8,3c-1.79,0-3.52-.86-3.52-2.42S361.32,220.42,363.11,220.42Zm1.21,20.28c-4.5.11-5.42-2.48-5.42-5.07a4.9,4.9,0,0,1,2-3.76l3.46,3.53,3.48,3.71A5,5,0,0,1,364.32,240.7Z" transform="translate(-17.13 -32.46)"/></svg>